<?xml version="1.0" standalone="no"?>
<!DOCTYPE svg PUBLIC "-//W3C//DTD SVG 20010904//EN"
 "http://www.w3.org/TR/2001/REC-SVG-20010904/DTD/svg10.dtd">
<svg version="1.0" xmlns="http://www.w3.org/2000/svg"
 width="200.000000pt" height="200.000000pt" viewBox="0 0 200.000000 200.000000"
 preserveAspectRatio="xMidYMid meet">

<g transform="translate(0.000000,200.000000) scale(0.100000,-0.100000)"
fill="#FFFFFF" stroke="none">
<path d="M20 1980 c-19 -19 -20 -33 -20 -264 l0 -244 44 -39 c24 -21 166 -135
314 -253 149 -118 271 -217 271 -220 1 -3 -29 -42 -66 -88 -55 -70 -69 -82
-87 -77 -47 15 -67 17 -92 11 -32 -8 -159 -128 -181 -170 -18 -36 -12 -99 13
-127 19 -21 24 -12 -136 -194 -68 -77 -83 -105 -74 -139 7 -28 141 -161 170
-170 34 -10 63 7 175 106 58 51 112 99 121 106 13 11 22 9 50 -8 67 -41 112
-25 210 77 82 85 89 107 63 189 -5 17 9 33 89 98 53 42 102 79 109 82 8 2 60
-32 116 -77 86 -69 101 -85 96 -103 -26 -82 -19 -104 63 -189 98 -102 143
-118 210 -77 28 17 37 19 50 8 9 -7 63 -55 121 -106 112 -100 139 -115 175
-106 28 7 161 141 170 170 10 34 -7 63 -106 175 -51 58 -99 112 -106 121 -11
13 -9 22 8 50 41 67 25 112 -77 210 -85 82 -107 89 -189 63 -18 -5 -32 7 -87
77 -37 46 -67 85 -66 88 0 3 122 102 271 220 148 118 290 232 314 253 l44 39
0 244 c0 231 -1 245 -20 264 -19 19 -33 20 -265 20 -228 0 -245 -1 -262 -19
-10 -11 -115 -141 -233 -290 -118 -148 -217 -270 -220 -270 -3 0 -93 111 -200
246 -107 135 -212 265 -233 289 l-39 44 -244 0 c-231 0 -245 -1 -264 -20z
m1850 -255 c0 -179 17 -161 -138 -144 -145 15 -136 7 -150 142 -7 63 -12 124
-12 136 0 21 3 21 150 21 l150 0 0 -155z m-1440 118 c-1 -52 -26 -232 -33
-240 -8 -7 -188 -32 -239 -33 l-28 0 0 150 0 150 150 0 150 0 0 -27z m319
-312 l171 -213 -31 -39 c-17 -22 -34 -39 -37 -39 -4 0 -79 72 -166 159 l-159
159 7 83 c4 46 10 95 13 107 7 30 -6 44 202 -217z m716 113 l6 -89 -439 -439
c-242 -241 -442 -434 -445 -430 -3 5 189 251 426 548 352 440 432 535 438 519
4 -11 10 -60 14 -109z m-92 -893 c26 -33 44 -62 39 -65 -5 -3 -46 33 -92 79
-74 75 -82 86 -69 101 15 18 24 10 122 -115z m-740 -383 l-47 -48 -133 132
-133 133 47 47 47 48 133 -132 133 -133 -47 -47z m915 85 l-133 -133 -47 47
-48 47 132 133 133 133 47 -47 48 -47 -132 -133z m-1194 -171 c-88 -81 -151
-132 -161 -132 -5 0 -19 10 -31 22 l-21 23 91 103 91 103 39 -38 39 -38 -47
-43z m1452 -28 c24 -28 44 -56 44 -61 0 -5 -10 -19 -22 -31 l-23 -21 -103 91
-103 91 38 39 38 39 43 -47 c24 -27 64 -71 88 -100z"/>
</g>
</svg>
