<?xml version="1.0" encoding="UTF-8"?>
<svg version="1.1" xmlns="http://www.w3.org/2000/svg" width="256" height="256">
<path d="M0 0 C22.03852652 18.81159856 36.46579334 41.06373377 44.3515625 68.91015625 C44.69316406 70.08835937 45.03476563 71.2665625 45.38671875 72.48046875 C52.92056498 104.36791093 46.53869956 140.38566089 29.7109375 168.21484375 C11.42243893 197.30470432 -15.82417005 216.61472176 -48.6484375 225.91015625 C-49.82664063 226.25175781 -51.00484375 226.59335938 -52.21875 226.9453125 C-84.10619218 234.47915873 -120.12394214 228.09729331 -147.953125 211.26953125 C-177.04298557 192.98103268 -196.35300301 165.7344237 -205.6484375 132.91015625 C-205.99003906 131.73195312 -206.33164063 130.55375 -206.68359375 129.33984375 C-214.21743998 97.45240157 -207.83557456 61.43465161 -191.0078125 33.60546875 C-172.71931393 4.51560818 -145.47270495 -14.79440926 -112.6484375 -24.08984375 C-111.47023438 -24.43144531 -110.29203125 -24.77304687 -109.078125 -25.125 C-71.91216204 -33.90596927 -29.43835184 -24.14652242 0 0 Z " fill="#BEBEBF" transform="translate(208.6484375,27.08984375)"/>
<path d="M0 0 C1.69646416 -0.00284752 1.69646416 -0.00284752 3.42720032 -0.00575256 C7.14497935 -0.00944118 10.86256077 0.00121294 14.58032227 0.01245117 C17.16724118 0.01364369 19.75416053 0.01409598 22.34107971 0.01383972 C27.75020272 0.01540104 33.1592548 0.02342247 38.56835938 0.03710938 C44.82715498 0.05288744 51.08588909 0.05810541 57.34470314 0.05737382 C63.37072749 0.05676454 69.39672673 0.06196592 75.42274666 0.07016563 C77.98692771 0.07335698 80.55111058 0.07532079 83.1152935 0.07605934 C86.68496717 0.07821461 90.25456189 0.08693936 93.82421875 0.09765625 C95.4270018 0.09697647 95.4270018 0.09697647 97.06216431 0.09628296 C98.51094719 0.10268044 98.51094719 0.10268044 99.98899841 0.10920715 C101.25516573 0.11172092 101.25516573 0.11172092 102.54691219 0.11428547 C104.45922852 0.24291992 104.45922852 0.24291992 105.45922852 1.24291992 C106.0040043 6.85238166 104.01442737 10.95088502 101.12496948 15.65393066 C96.6208945 20.02832484 91.56736155 19.75801589 85.62135315 19.75494385 C83.91233377 19.71576129 82.20334409 19.67526446 80.49438477 19.63354492 C78.73318202 19.6336013 76.97197219 19.6389496 75.21080017 19.64935303 C70.59149733 19.66250209 65.97580365 19.60409 61.35717773 19.53045654 C56.63801089 19.46798264 51.91897058 19.473601 47.19946289 19.47338867 C37.95158288 19.46298662 28.70608575 19.37693997 19.45922852 19.24291992 C20.57416183 19.87953049 21.68909515 20.51614105 22.83781433 21.17204285 C25.21710357 22.53058209 27.59094879 23.89599363 29.94750977 25.29370117 C30.55852539 25.6547998 31.16954102 26.01589844 31.79907227 26.38793945 C33.17048072 27.19958243 34.54154983 28.01179893 35.91235352 28.82446289 C40.59032026 31.58647488 45.29802284 34.28751007 50.03344727 36.94995117 C51.1770874 37.59730225 52.32072754 38.24465332 53.49902344 38.91162109 C55.75590472 40.18759582 58.01759749 41.45510841 60.28466797 42.71289062 C77.26138857 52.34609032 77.26138857 52.34609032 80.45922852 60.24291992 C81.51877073 69.22838829 79.57130858 75.53362171 74.27172852 82.80541992 C68.84447361 89.50967598 62.30351136 93.79832466 54.45922852 97.24291992 C53.32424911 97.75706609 53.32424911 97.75706609 52.16634083 98.28159904 C49.30661935 99.29711286 47.21096962 99.48960376 44.18840027 99.48342896 C43.146586 99.48617828 42.10477173 99.48892761 41.03138733 99.49176025 C39.89922287 99.4845697 38.76705841 99.47737915 37.60058594 99.4699707 C36.40016663 99.47026276 35.19974731 99.47055481 33.96295166 99.47085571 C30.68022605 99.46970285 27.39767196 99.45968683 24.11498046 99.4457078 C20.68101611 99.43318749 17.24704823 99.43202892 13.81306458 99.42965698 C7.31436871 99.42344603 0.81574031 99.40704044 -5.68292588 99.386958 C-13.08313336 99.36458701 -20.4833441 99.35360256 -27.88357699 99.34356713 C-43.10268086 99.32267385 -58.32171747 99.28750538 -73.54077148 99.24291992 C-73.63938426 94.85728624 -73.43096815 92.29007041 -71.16577148 88.49291992 C-70.72491211 87.73495117 -70.28405273 86.97698242 -69.82983398 86.19604492 C-68.54077148 84.24291992 -68.54077148 84.24291992 -66.54077148 82.24291992 C-63.92270663 82.02552017 -61.40719302 81.93152576 -58.78637695 81.92407227 C-57.58624969 81.90900383 -57.58624969 81.90900383 -56.36187744 81.89363098 C-53.71057877 81.86267722 -51.05938162 81.8457302 -48.40795898 81.82885742 C-46.57234822 81.81015556 -44.73674613 81.79058289 -42.90115356 81.77017212 C-38.06460682 81.7187411 -33.22803217 81.67917425 -28.39135742 81.64202881 C-23.45801834 81.60205775 -18.52479644 81.55093403 -13.59155273 81.50073242 C-3.90804117 81.40384334 5.77553639 81.31948027 15.45922852 81.24291992 C13.72231036 80.29489147 11.98531631 79.34700206 10.24829102 78.39916992 C9.28101074 77.87129883 8.31373047 77.34342773 7.31713867 76.79956055 C5.5200542 75.82072827 3.72165724 74.84429795 1.92138672 73.87133789 C-2.67619695 71.38566334 -7.01398378 68.66083226 -11.30249023 65.67260742 C-13.95632232 63.97748954 -16.71771668 62.63662501 -19.54077148 61.24291992 C-23.58778413 58.98729749 -27.5684771 56.62731771 -31.54077148 54.24291992 C-32.39928711 53.73374023 -33.25780273 53.22456055 -34.14233398 52.69995117 C-38.96983844 49.68881545 -43.56956646 46.78106736 -45.54077148 41.24291992 C-46.808732 32.67930967 -46.39414599 25.52672566 -41.29077148 18.37963867 C-40.71327148 17.67452148 -40.13577148 16.9694043 -39.54077148 16.24291992 C-39.04577148 15.60999023 -38.55077148 14.97706055 -38.04077148 14.32495117 C-28.12840022 3.09919071 -14.26119763 -0.07600959 0 0 Z " fill="#22017F" transform="translate(86.540771484375,18.757080078125)"/>
<path d="M0 0 C1.66107033 -0.01496269 1.66107033 -0.01496269 3.35569763 -0.03022766 C4.57644485 -0.03089233 5.79719208 -0.03155701 7.05493164 -0.03224182 C8.97711266 -0.0447271 8.97711266 -0.0447271 10.93812561 -0.0574646 C14.46130219 -0.07945502 17.98439193 -0.0882158 21.50762939 -0.09329104 C23.71115144 -0.09693258 25.91465069 -0.10317191 28.11816406 -0.11029243 C35.81307982 -0.13481322 43.50792804 -0.14784222 51.20288086 -0.15138245 C58.36131639 -0.1550086 65.51932073 -0.18483055 72.6776247 -0.22678703 C78.83065148 -0.26157895 84.98353618 -0.2769325 91.13666058 -0.27762848 C94.80807376 -0.27841899 98.47904902 -0.2870504 102.15036011 -0.31562614 C106.25557322 -0.34686042 110.3597748 -0.33770493 114.46508789 -0.32521057 C115.66964127 -0.34004486 116.87419464 -0.35487915 118.11524963 -0.37016296 C126.33298447 -0.29915468 133.38412081 1.14023468 139.54467773 6.93685246 C144.00435648 12.14990568 143.66151825 19.49291973 143.32836914 26.00071716 C142.72662342 32.2229062 140.23622735 37.13423213 136.77758789 42.27415466 C136.34446289 42.93673279 135.91133789 43.59931091 135.46508789 44.28196716 C127.69039035 54.60195259 113.93705183 60.74127383 101.49241638 62.82394409 C97.95355127 63.25282916 94.57838073 63.39462404 91.01611328 63.38768005 C89.71529312 63.38760452 88.41447296 63.38752899 87.07423401 63.38745117 C85.67457032 63.38234607 84.27490703 63.3771301 82.87524414 63.37181091 C81.42793324 63.36994333 79.9806217 63.36852103 78.53330994 63.36752319 C74.74399029 63.36372484 70.95470963 63.35391776 67.16540527 63.34281921 C63.29069547 63.33254713 59.4159793 63.32801321 55.54125977 63.32298279 C47.95335146 63.31229282 40.36547516 63.295249 32.77758789 63.27415466 C33.79647932 55.57443079 33.79647932 55.57443079 35.71508789 51.96165466 C36.05411133 51.30552185 36.39313477 50.64938904 36.74243164 49.97337341 C37.77758789 48.27415466 37.77758789 48.27415466 39.77758789 46.27415466 C42.50805664 46.03465271 42.50805664 46.03465271 45.96508789 46.03587341 C47.8503418 46.01170349 47.8503418 46.01170349 49.77368164 45.98704529 C52.41222521 45.96541788 55.04891404 45.9648298 57.68774414 45.97142029 C65.71686649 45.84481663 72.14424139 45.07900478 78.77758789 40.27415466 C83.54561721 35.25747361 84.34575077 30.49140621 84.44165039 23.69212341 C83.98937719 21.11971414 83.98937719 21.11971414 81.75878906 19.65501404 C77.96135765 17.89608585 74.52068712 17.79688673 70.41430664 17.76243591 C69.62232376 17.74448471 68.83034088 17.72653351 68.01435852 17.70803833 C65.49798827 17.65408628 62.98180605 17.62008903 60.46508789 17.58665466 C58.75347327 17.55346815 57.04188341 17.51897725 55.33032227 17.48313904 C51.14621347 17.39836884 46.96215896 17.33148623 42.77758789 17.27415466 C42.52267578 18.09480408 42.26776367 18.91545349 42.00512695 19.76097107 C40.59863799 23.78630443 38.90655553 27.6091633 37.13696289 31.48509216 C36.77790863 32.27862595 36.41885437 33.07215973 36.04891968 33.88973999 C34.87778793 36.47741951 33.7028444 39.0633462 32.52758789 41.64915466 C27.81217546 52.04208324 23.10356109 62.43378709 18.61352539 72.92649841 C18.29420044 73.66990479 17.97487549 74.41331116 17.64587402 75.179245 C16.14834374 78.66736638 14.66227984 82.15960918 13.19458008 85.66038513 C12.662847 86.90294669 12.13064844 88.14530919 11.59790039 89.38743591 C10.92138428 90.99292297 10.92138428 90.99292297 10.23120117 92.63084412 C8.64576747 95.51386236 7.56710371 96.58661399 4.77758789 98.27415466 C2.28448486 98.63491821 2.28448486 98.63491821 -0.54174805 98.61473083 C-1.60254578 98.61450424 -2.66334351 98.61427765 -3.75628662 98.61404419 C-4.89495178 98.59856033 -6.03361694 98.58307648 -7.20678711 98.56712341 C-8.3775177 98.56287857 -9.54824829 98.55863373 -10.75445557 98.55426025 C-14.49400827 98.53746642 -18.23302226 98.4998117 -21.97241211 98.46165466 C-24.50756058 98.44660879 -27.04271749 98.43292022 -29.57788086 98.42063904 C-35.79290844 98.38756051 -42.00762179 98.33735349 -48.22241211 98.27415466 C-48.57405248 93.22136041 -47.51019628 90.02543085 -45.35522461 85.47337341 C-45.04889603 84.81615295 -44.74256744 84.1589325 -44.42695618 83.48179626 C-43.76024483 82.05373848 -43.08850465 80.62802005 -42.412323 79.204422 C-40.56888203 75.3220228 -38.76272301 71.42230061 -36.95288086 67.52415466 C-36.37876213 66.29102791 -36.37876213 66.29102791 -35.79304504 65.0329895 C-30.85488207 54.3898887 -26.1954131 43.62307071 -21.53179932 32.85749817 C-7.3097831 0.03519228 -7.3097831 0.03519228 0 0 Z " fill="#61217C" transform="translate(104.222412109375,134.72584533691406)"/>
</svg>
