<?xml version="1.0" encoding="UTF-8"?>
<svg version="1.1" xmlns="http://www.w3.org/2000/svg" width="1883" height="410">
<path d="M0 0 C2.1936132 -0.00433095 4.38722299 -0.01084871 6.58082396 -0.01936007 C12.5987337 -0.03634393 18.61622705 -0.02217499 24.63411486 -0.00284529 C31.12858533 0.01258469 37.62300487 -0.00082127 44.11747742 -0.0105896 C56.10357327 -0.02523011 68.0895315 -0.01540956 80.07561431 0.00482657 C91.1545925 0.02339827 102.23352339 0.0318041 113.31251717 0.03025818 C114.04799523 0.0301665 114.7834733 0.03007483 115.54123858 0.02998037 C118.52703481 0.0295872 121.51283103 0.02913756 124.49862724 0.02860898 C152.50636309 0.02373844 180.51401513 0.04639282 208.52172492 0.08256521 C233.37595593 0.11452812 258.2301153 0.12661348 283.08436584 0.1204834 C284.67901104 0.12009655 286.27365624 0.11971009 287.86830144 0.11932403 C288.65668101 0.11913268 289.44506058 0.11894134 290.25733044 0.11874419 C294.22638067 0.11778977 298.19543091 0.11687541 302.16448116 0.11600494 C302.94760203 0.11583115 303.7307229 0.11565736 304.5375747 0.1154783 C325.33006213 0.11111592 346.12254189 0.12115347 366.91502386 0.1358428 C367.65543973 0.13636294 368.39585559 0.13688308 369.1587083 0.13741899 C370.2672548 0.138198 370.2672548 0.138198 371.39819618 0.13899276 C372.13583665 0.1395105 372.87347712 0.14002824 373.63347033 0.14056167 C375.11896398 0.14160976 376.60445761 0.14266997 378.08995124 0.14374239 C388.42109758 0.1511059 398.75223298 0.15321431 409.08338163 0.15174838 C422.4081747 0.14989709 435.7329004 0.15806426 449.05767154 0.18338984 C455.47819093 0.19520898 461.89862121 0.20240234 468.31915092 0.19655228 C474.20724825 0.19134613 480.09515804 0.20018901 485.98322339 0.21982688 C488.10302798 0.22453133 490.22285106 0.22431237 492.34265267 0.21841651 C519.61574195 0.14994518 548.18606901 3.78694262 568.68641663 23.5645752 C570.03271428 24.90534106 571.36221215 26.26291521 572.69056702 27.62145996 C573.68830139 28.57085449 573.68830139 28.57085449 574.70619202 29.53942871 C591.01216769 46.17593092 593.05990034 70.79965419 592.92405701 92.717453 C592.82108103 102.28523128 592.02072675 111.33515121 589.69056702 120.62145996 C589.4164801 121.76421387 589.4164801 121.76421387 589.13685608 122.93005371 C578.05541268 167.83810348 546.79788584 202.50969194 508.37806702 226.68395996 C506.15891389 228.0133206 503.92918667 229.32514892 501.69056702 230.62145996 C501.09002502 230.9703125 500.48948303 231.31916504 499.8707428 231.67858887 C487.05310611 239.03362028 473.49559206 244.41513214 459.69056702 249.62145996 C458.97690979 249.89474121 458.26325256 250.16802246 457.52796936 250.44958496 C432.48731401 259.93118993 404.67414187 264.05923334 378.00498962 265.17488098 C376.5109131 265.23803166 376.5109131 265.23803166 374.98665321 265.30245811 C364.21079277 265.72550706 353.44252736 265.76973035 342.6598053 265.76672363 C340.46414636 265.76972625 338.26848795 265.77313125 336.0728302 265.77690125 C330.18947516 265.78562208 324.30613472 265.78807392 318.42277384 265.78871703 C314.73853692 265.78943305 311.05430361 265.79157744 307.3700676 265.79421425 C294.49561582 265.80341998 281.62117432 265.80755415 268.74671936 265.8067627 C256.77273783 265.80615946 244.79881432 265.81677141 232.82484639 265.83250636 C222.50500469 265.84558161 212.18517764 265.85094677 201.86532772 265.85030729 C195.71787677 265.8500528 189.57046586 265.85287858 183.42302322 265.86348534 C177.65589418 265.87316891 171.88884354 265.87324372 166.12171173 265.8659687 C164.00979625 265.86492401 161.89787586 265.86727889 159.78596878 265.87332916 C156.89788537 265.88106658 154.01007177 265.8763931 151.12199402 265.86869812 C149.87749188 265.87641346 149.87749188 265.87641346 148.60784829 265.88428468 C143.25874575 265.85290849 137.71804063 265.60167045 132.69056702 263.62145996 C129.72555809 259.17394657 129.80375214 255.84841371 130.69056702 250.62145996 C132.67749308 244.61234377 135.57790043 238.9392769 138.31556702 233.24645996 C139.03733526 231.70820153 139.75740025 230.16914272 140.47572327 228.62927246 C142.19984608 224.94736273 143.95361281 221.28083211 145.72514343 217.621521 C146.62895647 215.74909808 147.5205484 213.87131684 148.41004944 211.99206543 C148.92156555 210.93132812 149.43308167 209.87059082 149.96009827 208.77770996 C150.39427063 207.87085449 150.82844299 206.96399902 151.27577209 206.02966309 C154.43621915 200.65008591 159.59819076 196.22471687 165.69056702 194.62145996 C170.74433386 193.58621191 175.59767543 193.47018609 180.73085022 193.46374512 C181.62125504 193.4586644 182.51165985 193.45358368 183.42904663 193.448349 C185.35727276 193.43767742 187.28551103 193.42904475 189.21375465 193.42222977 C192.28121847 193.41036829 195.34854604 193.39089273 198.41595459 193.36911011 C207.13610688 193.30776918 215.85624653 193.25369923 224.57655334 193.22009277 C229.91989107 193.19895259 235.26298152 193.16349142 240.60617638 193.11933517 C242.62679793 193.10531971 244.64746325 193.09648602 246.66813087 193.09328079 C277.33318265 193.03953164 306.58403816 185.89781579 329.44056702 164.30895996 C334.01789077 159.55181278 337.42725318 154.33839322 340.69056702 148.62145996 C341.38472717 147.47097168 341.38472717 147.47097168 342.09291077 146.29724121 C350.04186876 132.06643192 352.98308421 112.28914771 348.69056702 96.62145996 C345.37472335 87.28896449 339.70877685 81.69605948 331.19056702 76.87145996 C315.42468695 69.88168705 297.86278926 71.21638373 281.00976562 71.31727815 C277.29693785 71.3362519 273.58409986 71.33781146 269.87123108 71.34135437 C262.86641693 71.35061489 255.86174614 71.37514586 248.85699463 71.40540284 C240.87130615 71.43913552 232.8856102 71.45547989 224.89986801 71.47048914 C208.49668427 71.50170207 192.09364404 71.55434355 175.69056702 71.62145996 C175.19242493 72.75873535 174.69428284 73.89601074 174.18104553 75.06774902 C172.28653811 79.39224387 170.39070476 83.71615647 168.49452209 88.03991699 C167.68265138 89.89165279 166.87111416 91.74353485 166.05995178 93.59558105 C160.34669896 106.63924578 154.55633945 119.64569899 148.69056702 132.62145996 C142.60962868 146.08684347 136.61003021 159.5842848 130.69056702 173.12145996 C124.4061842 187.49316701 118.02440386 201.8171049 111.56556702 216.11120605 C105.85870351 228.74606315 100.24506298 241.41892558 94.69056702 254.12145996 C88.77112375 267.65858955 82.77423417 281.15733312 76.69056702 294.62145996 C70.58809243 308.1280583 64.57084024 321.66884151 58.62806702 335.24645996 C52.93855805 348.23383888 47.24854422 361.22101454 41.49015808 374.17803955 C40.75872422 375.82620948 40.02939473 377.47531519 39.30235291 379.12542725 C30.00015283 400.22789475 30.00015283 400.22789475 24.25306702 404.99645996 C23.71810608 405.45794434 23.18314514 405.91942871 22.63197327 406.39489746 C17.25892251 409.7895412 11.89886462 409.91031073 5.76452637 409.88215637 C4.87679678 409.88598192 3.9890672 409.88980747 3.07443672 409.89374894 C0.1058434 409.9040511 -2.86255551 409.9000921 -5.8311615 409.89611816 C-7.96183959 409.90046609 -10.09251611 409.90564951 -12.22319031 409.91160583 C-18.00606177 409.92499622 -23.78886789 409.9255746 -29.57175183 409.92304254 C-34.39809443 409.92197317 -39.22442379 409.92685516 -44.05076355 409.93164796 C-55.43379038 409.94274261 -66.81678422 409.94318033 -78.19981384 409.93713379 C-89.94916832 409.93108877 -101.6984032 409.94341855 -113.44773728 409.96470386 C-123.53278638 409.98230337 -133.61779735 409.98832395 -143.70286125 409.98506612 C-149.72749359 409.98325098 -155.75204056 409.98591273 -161.77665901 409.99978065 C-167.43934988 410.01232801 -173.10185374 410.0104442 -178.76454163 409.99736977 C-180.84425862 409.99499794 -182.92398866 409.99776025 -185.00369072 410.00599289 C-187.8394713 410.01641043 -190.67461853 410.00839993 -193.51037598 409.99568176 C-194.33605483 410.00305605 -195.16173369 410.01043033 -196.01243311 410.01802808 C-200.57514832 409.97488523 -203.62968216 409.62709165 -207.30943298 406.62145996 C-210.6963507 397.13809036 -204.33304891 386.77423906 -200.35176086 378.33309937 C-198.52184447 374.45033341 -196.72355712 370.55293041 -194.92271423 366.65661621 C-194.35415459 365.42873131 -194.35415459 365.42873131 -193.77410889 364.17604065 C-189.5504696 355.02774518 -185.52296094 345.79546001 -181.49693298 336.55895996 C-175.32873887 322.42816061 -169.0584845 308.34811024 -162.68443298 294.30895996 C-156.82093923 281.39363099 -150.9926405 268.46465448 -145.24693298 255.49645996 C-139.56095927 242.6643153 -133.82653794 229.85485116 -128.05943298 217.05895996 C-121.40373718 202.28857358 -114.7912121 187.50028565 -108.22618103 172.68933105 C-104.71513208 164.76960146 -101.20066153 156.85139111 -97.68443298 148.93395996 C-97.0418454 147.48699738 -97.0418454 147.48699738 -96.38627625 146.01080322 C-90.3148432 132.34317661 -84.20604303 118.69293253 -78.05943298 105.05895996 C-72.71980821 93.21407406 -67.3958758 81.36263091 -62.11909485 69.48959351 C-61.13247754 67.27018013 -60.14444561 65.05140018 -59.15635681 62.8326416 C-56.15373019 56.08221266 -53.17200709 49.32394815 -50.24645996 42.53970337 C-48.90606965 39.43249944 -47.55814098 36.32858707 -46.2101593 33.22467041 C-45.579693 31.76622646 -44.95324782 30.30603603 -44.33131409 28.84393311 C-34.86595737 6.5920647 -34.86595737 6.5920647 -24.76034343 1.70096684 C-16.82646054 -0.78089447 -8.23281001 -0.05247529 0 0 Z " fill="#F6ECFE" transform="translate(433.30943298339844,-0.6214599609375)"/>
<path d="M0 0 C2.26642435 -0.00079213 4.53284855 -0.00289322 6.79927063 -0.00619507 C12.914082 -0.01129904 19.02872315 0.0021419 25.14350724 0.01933193 C31.54917358 0.03442703 37.95483826 0.03319514 44.36051941 0.03399658 C55.10073297 0.03767989 65.84086837 0.05251527 76.58105469 0.07519531 C87.63412001 0.09851902 98.68714465 0.11263067 109.74023438 0.11621094 C110.42299983 0.1164337 111.10576528 0.11665647 111.80922059 0.11688599 C113.18468098 0.11732859 114.56014136 0.11777061 115.93560175 0.11821206 C116.61409535 0.11843163 117.29258894 0.11865119 117.99164295 0.11887741 C118.66842824 0.1190934 119.34521353 0.11930938 120.04250746 0.11953191 C131.22295835 0.12345002 142.40340152 0.13614377 153.5838449 0.14922428 C157.40268093 0.15332828 161.22151656 0.15625111 165.04035378 0.15901947 C171.02155156 0.16389666 177.00271782 0.17407307 182.98390007 0.18845749 C185.18462973 0.19299506 187.38536363 0.19582258 189.58609772 0.19686508 C192.57592931 0.19859997 195.56568091 0.20645368 198.55549622 0.21600342 C199.8791796 0.21470369 199.8791796 0.21470369 201.22960407 0.21337771 C207.19902361 0.2422365 207.19902361 0.2422365 208.31323242 1.35644531 C208.76802137 7.96179766 206.34531145 12.61024066 203.62573242 18.48144531 C203.19067383 19.47015625 202.75561523 20.45886719 202.30737305 21.47753906 C201.87231445 22.43015625 201.43725586 23.38277344 200.98901367 24.36425781 C200.59625244 25.22680176 200.20349121 26.0893457 199.79882812 26.97802734 C197.92030647 29.98551428 196.36786722 31.52080478 193.31323242 33.35644531 C190.33372813 33.76743101 187.72024309 33.93774045 184.73901367 33.93066406 C183.83488235 33.94451141 182.93075104 33.95835876 181.9992218 33.97262573 C178.87464715 34.01530884 175.75055623 34.02932051 172.62573242 34.04394531 C170.36252992 34.06889685 168.09934602 34.09558079 165.83618164 34.1237793 C160.40848986 34.18666568 154.98087041 34.23520909 149.55297852 34.27539062 C138.29048211 34.35950101 127.02835244 34.47736638 115.76614189 34.59286308 C88.28206661 34.87385929 60.79773941 35.12194134 33.31323242 35.35644531 C51.66789235 46.0789673 51.66789235 46.0789673 70.06323242 56.73144531 C71.65047119 57.6468811 71.65047119 57.6468811 73.26977539 58.58081055 C80.13316859 62.53543234 87.0078908 66.46979904 93.88867188 70.39404297 C99.70039462 73.7086682 105.50695536 77.03229155 111.31323242 80.35644531 C112.43197754 80.99565918 113.55072266 81.63487305 114.70336914 82.29345703 C117.93145438 84.14098944 121.15426646 85.9974005 124.37573242 87.85644531 C125.32013184 88.395354 126.26453125 88.9342627 127.23754883 89.48950195 C140.45096311 97.1479997 152.95139474 104.98391469 157.31323242 120.35644531 C160.39023707 132.83422968 156.27448705 146.14613344 150.32104492 157.10644531 C138.25885448 176.63123607 118.85903016 188.65818442 96.9267807 194.21434498 C85.03010051 196.70387091 73.40997222 196.76074594 61.29174805 196.69702148 C59.01355501 196.69617358 56.73536115 196.69665354 54.45716858 196.698349 C48.31980879 196.699204 42.18262762 196.68165894 36.04530907 196.66062713 C29.61383361 196.6417772 23.18235332 196.64010336 16.75085449 196.6365509 C5.97131928 196.62830862 -4.80814328 196.60961485 -15.58764648 196.58276367 C-26.68236979 196.55515632 -37.77707538 196.53395559 -48.87182617 196.52124023 C-49.90051478 196.52005798 -49.90051478 196.52005798 -50.94998497 196.51885184 C-54.39097517 196.51493625 -57.83196549 196.51114524 -61.27295589 196.50741613 C-89.74427022 196.47640014 -118.21551635 196.42340929 -146.68676758 196.35644531 C-148.77270508 191.72021484 -148.77270508 191.72021484 -147.99926758 188.44628906 C-146.59241205 185.06732356 -145.17578958 181.70021403 -143.68676758 178.35644531 C-143.20336914 177.24269531 -142.7199707 176.12894531 -142.22192383 174.98144531 C-139.45058853 168.98301135 -137.58714911 165.67541013 -131.68676758 162.35644531 C-128.37161446 161.84863663 -128.37161446 161.84863663 -124.70120239 161.83746338 C-123.68283336 161.8262115 -123.68283336 161.8262115 -122.64389122 161.81473231 C-120.38198892 161.79452483 -118.12109572 161.80254343 -115.85913086 161.81054688 C-114.23264071 161.80180802 -112.60615916 161.79132114 -110.97969055 161.77922058 C-106.57309308 161.75137802 -102.16677637 161.74795551 -97.7601037 161.74894047 C-93.15159993 161.74580987 -88.54322233 161.72018858 -83.93478394 161.69696045 C-75.21203267 161.65640821 -66.48935616 161.63606156 -57.76652515 161.62298656 C-47.83422258 161.60711389 -37.90204716 161.56869713 -27.96981835 161.52839327 C-7.54217671 161.44600494 12.88545895 161.39190615 33.31323242 161.35644531 C32.52787109 160.90841553 31.74250977 160.46038574 30.93334961 159.9987793 C27.95847895 158.30131967 24.98390693 156.60333889 22.00952148 154.9050293 C20.73359506 154.17663728 19.45755733 153.4484402 18.18139648 152.72045898 C9.86582643 147.97665544 1.57352011 143.19614019 -6.68676758 138.35644531 C-14.73131108 133.64843628 -22.80238326 128.98996143 -30.90042114 124.37475586 C-36.16530345 121.37349861 -41.4259219 118.36477037 -46.68676758 115.35644531 C-47.80841309 114.71578125 -48.93005859 114.07511719 -50.08569336 113.41503906 C-53.31091281 111.56907829 -56.53078439 109.71412055 -59.74926758 107.85644531 C-60.69350586 107.31761719 -61.63774414 106.77878906 -62.6105957 106.22363281 C-75.54281236 98.72830096 -87.2362016 91.12258025 -92.03051758 76.30566406 C-94.99368065 62.98906813 -91.42695119 50.21440119 -84.83911133 38.59863281 C-81.06394773 32.91190725 -76.52913294 28.14233994 -71.68676758 23.35644531 C-70.70063477 22.35484375 -70.70063477 22.35484375 -69.69458008 21.33300781 C-50.60387638 3.22551632 -25.05681095 -0.11331212 0 0 Z " fill="#F6ECFE" transform="translate(148.686767578125,0.6435546875)"/>
<path d="M0 0 C0.86367187 -0.01611328 1.72734375 -0.03222656 2.6171875 -0.04882812 C8.04473543 -0.0529524 12.31968911 0.29440861 17 3.3125 C19.2707122 6.29680953 20.89555407 9.52474834 22.5625 12.875 C23.60776567 14.88167049 24.65335173 16.88817411 25.69921875 18.89453125 C26.23853027 19.94721191 26.7778418 20.99989258 27.33349609 22.08447266 C30.10432677 27.45158711 32.99793543 32.75182969 35.875 38.0625 C37.0607297 40.26517632 38.24561929 42.46830509 39.4296875 44.671875 C42.95005189 51.22040647 46.47463421 57.76665998 50 64.3125 C51.16668608 66.47915621 52.33335274 68.64582288 53.5 70.8125 C54.0775 71.885 54.655 72.9575 55.25 74.0625 C74.5 109.81250001 74.5 109.81250001 76.25195312 113.06616211 C77.41207051 115.22064267 78.57222641 117.3751025 79.73242188 119.52954102 C82.43219281 124.54302172 85.13161467 129.5566891 87.82958984 134.57113647 C88.77561874 136.32937777 89.72179331 138.08754069 90.66796875 139.84570312 C91.84790766 142.03827618 93.02761347 144.2309747 94.20703125 146.42382812 C94.74714844 147.42736328 95.28726562 148.43089844 95.84375 149.46484375 C96.36340332 150.43413818 96.88305664 151.40343262 97.41845703 152.40209961 C98.50438478 154.40045477 99.61070928 156.38781957 100.73388672 158.36547852 C101.28318848 159.33799561 101.83249023 160.3105127 102.3984375 161.3125 C102.89520996 162.17746094 103.39198242 163.04242188 103.90380859 163.93359375 C105.0181369 166.3518599 105.36039837 167.74717173 105.125 170.375 C104 173.3125 104 173.3125 102.22814083 174.47980022 C99.73968551 175.40978461 97.87758856 175.56663894 95.2247467 175.57319641 C94.26726028 175.58028122 93.30977386 175.58736603 92.32327271 175.59466553 C91.27952484 175.59218811 90.23577698 175.58971069 89.16040039 175.5871582 C88.0559407 175.59226913 86.95148102 175.59738007 85.81355286 175.60264587 C82.15819905 175.61655986 78.50303341 175.61558375 74.84765625 175.61328125 C72.30944244 175.61716709 69.77122928 175.62150153 67.23301697 175.62626648 C61.91093572 175.63373253 56.58892369 175.63357264 51.2668457 175.62817383 C45.1194735 175.62213361 38.97233016 175.63444714 32.82499701 175.6557439 C26.90577967 175.6754946 20.98663316 175.6785324 15.06738091 175.67500877 C12.55115662 175.67552268 10.03492872 175.68077344 7.51872444 175.69082069 C4.00196766 175.70313968 0.48574224 175.69642025 -3.03100586 175.68481445 C-4.07272949 175.69245819 -5.11445312 175.70010193 -6.18774414 175.70797729 C-14.99712257 175.64363143 -14.99712257 175.64363143 -19 172.3125 C-24.09583509 166.37773543 -27.3592745 158.92166049 -30.75 151.9375 C-31.8122365 149.78177993 -32.87605507 147.62683876 -33.94140625 145.47265625 C-34.46234863 144.41836426 -34.98329102 143.36407227 -35.52001953 142.27783203 C-37.51637618 138.27787363 -39.58819995 134.32166615 -41.6875 130.375 C-46.77494921 120.79737471 -51.72883983 111.1522905 -56.6831665 101.50537109 C-61.26715056 92.58082713 -65.8597006 83.66360231 -70.66430664 74.85498047 C-73 70.52410485 -73 70.52410485 -73 68.3125 C-82.72706336 74.75528191 -92.38285847 81.29238173 -101.98388672 87.92138672 C-105.31948556 90.22294184 -108.65997241 92.517379 -112 94.8125 C-113.33335708 95.72913212 -114.66669041 96.6457988 -116 97.5625 C-124 103.0625 -132 108.5625 -140 114.0625 C-140.66008057 114.51633057 -141.32016113 114.97016113 -142.00024414 115.43774414 C-143.33266869 116.35373518 -144.66518813 117.26958821 -145.99780273 118.18530273 C-149.34583491 120.48618007 -152.6921478 122.78948476 -156.03515625 125.09765625 C-157.37751779 126.02356274 -158.71996522 126.94934472 -160.0625 127.875 C-160.71420166 128.32480225 -161.36590332 128.77460449 -162.03735352 129.23803711 C-165.43826189 131.57792612 -168.856008 133.88725888 -172.3046875 136.15625 C-172.99812256 136.61314209 -173.69155762 137.07003418 -174.40600586 137.54077148 C-175.73214769 138.41174434 -177.06097973 139.2786387 -178.39282227 140.14086914 C-181.73784461 142.20729072 -181.73784461 142.20729072 -184 145.3125 C-183.39793511 145.31157821 -182.79587023 145.31065641 -182.17556095 145.30970669 C-167.54607623 145.2876509 -152.91659249 145.27108818 -138.28709507 145.26068783 C-131.21246813 145.255525 -124.13785226 145.24848256 -117.06323242 145.23706055 C-110.24221122 145.22605319 -103.42120156 145.22022382 -96.60017204 145.21762276 C-93.99133052 145.21576795 -91.38248967 145.2121463 -88.77365303 145.20676994 C-85.13367448 145.19956357 -81.49374425 145.19850889 -77.85375977 145.19897461 C-76.21809807 145.1935817 -76.21809807 145.1935817 -74.5493927 145.18807983 C-73.56356201 145.1894545 -72.57773132 145.19082916 -71.56202698 145.19224548 C-70.26921232 145.19086279 -70.26921232 145.19086279 -68.95028019 145.18945217 C-67 145.3125 -67 145.3125 -66 146.3125 C-65.33713072 152.03646578 -67.32693494 156.28165218 -69.625 161.375 C-69.95628906 162.16455078 -70.28757812 162.95410156 -70.62890625 163.76757812 C-70.97050781 164.53650391 -71.31210938 165.30542969 -71.6640625 166.09765625 C-71.96779785 166.78738525 -72.2715332 167.47711426 -72.58447266 168.18774414 C-74.5805062 171.18386003 -76.95437987 173.42800866 -80 175.3125 C-83.50256157 175.92773914 -83.50256157 175.92773914 -87.44113159 175.91377258 C-88.53300457 175.92018077 -88.53300457 175.92018077 -89.64693558 175.92671841 C-92.07499196 175.93492468 -94.50130327 175.90750546 -96.92919922 175.88012695 C-98.673904 175.87871596 -100.41861176 175.87950947 -102.16331482 175.88233948 C-106.89240842 175.88377303 -111.62086688 175.85439303 -116.34981298 175.81946969 C-121.29454668 175.78819616 -126.23929522 175.78527466 -131.18411255 175.77934265 C-140.54449319 175.76380716 -149.90458157 175.72278259 -159.26483357 175.6725952 C-169.92252789 175.61669266 -180.58023623 175.58921293 -191.23804069 175.56411803 C-213.15885686 175.51186655 -235.07941001 175.42392988 -257 175.3125 C-257.60546875 173.484375 -257.60546875 173.484375 -258 171.3125 C-254.74287662 166.00459523 -250.09806365 163.20779557 -244.93359375 159.8828125 C-239.9324687 156.65090976 -235.06856923 153.22177931 -230.1875 149.8125 C-229.20273682 149.12599365 -228.21797363 148.4394873 -227.20336914 147.73217773 C-225.16295143 146.30967109 -223.12283502 144.88673218 -221.08300781 143.46337891 C-216.07863437 139.97204774 -211.0709667 136.48545589 -206.0625 133 C-205.09658936 132.32775391 -204.13067871 131.65550781 -203.13549805 130.96289062 C-197.1440619 126.79582754 -191.13830313 122.65053131 -185.11962891 118.52294922 C-175.37875531 111.83581113 -165.69520107 105.06557923 -156 98.3125 C-133.57902474 82.69543118 -133.57902474 82.69543118 -122.92407227 75.39331055 C-117.59236506 71.73335771 -112.29443719 68.02610523 -107 64.3125 C-101.08066206 60.16057911 -95.15161446 56.02486532 -89.1875 51.9375 C-82.75220592 47.52662679 -76.34096243 43.08195538 -69.9375 38.625 C-68.96554687 37.94872559 -67.99359375 37.27245117 -66.9921875 36.57568359 C-62.00712535 33.10592987 -57.02504305 29.63198162 -52.046875 26.15234375 C-46.37524529 22.19024281 -40.69132073 18.24625224 -35 14.3125 C-33.69216553 13.40516113 -33.69216553 13.40516113 -32.35791016 12.47949219 C-29.91239706 10.78813293 -27.4580326 9.1105952 -25 7.4375 C-24.2886792 6.9434668 -23.5773584 6.44943359 -22.84448242 5.94042969 C-15.47109636 0.96873167 -8.7479971 -0.03264178 0 0 Z " fill="#F6ECFE" transform="translate(1255,20.6875)"/>
<path d="M0 0 C1.78013173 -0.00299769 3.56026282 -0.00640161 5.34039307 -0.01017761 C10.13932113 -0.01895112 14.93823133 -0.02135266 19.73716664 -0.0219934 C22.73702061 -0.02270669 25.7368701 -0.02484609 28.73672295 -0.02749062 C39.20518149 -0.03671583 49.67362736 -0.04082829 60.14208984 -0.04003906 C69.90004706 -0.03943621 79.65794936 -0.05003576 89.41589266 -0.06578273 C97.80422509 -0.07883737 106.19253949 -0.08422397 114.58088201 -0.08358365 C119.5870075 -0.08332843 124.59308393 -0.08619422 129.5991993 -0.0967617 C134.29669876 -0.10640988 138.99410184 -0.10654458 143.69160461 -0.09924507 C145.41740496 -0.09819574 147.14321123 -0.10058264 148.86900139 -0.10660553 C151.21898063 -0.11427814 153.56862282 -0.1097127 155.91859436 -0.10197449 C157.2349994 -0.10251925 158.55140444 -0.10306402 159.90770054 -0.1036253 C163.07006836 0.14526367 163.07006836 0.14526367 166.07006836 2.14526367 C165.5450102 7.99039642 163.8391613 12.55841282 161.32006836 17.83276367 C160.98491211 18.57848633 160.64975586 19.32420898 160.30444336 20.0925293 C159.96413086 20.81504883 159.62381836 21.53756836 159.27319336 22.28198242 C158.97058594 22.92868896 158.66797852 23.57539551 158.35620117 24.24169922 C156.46640212 27.03873096 155.0012888 28.35342161 152.07006836 30.14526367 C148.28697486 30.7480668 144.53301573 30.68830398 140.70898438 30.65942383 C138.98597862 30.67011147 138.98597862 30.67011147 137.22816467 30.68101501 C133.42659401 30.70032769 129.62557826 30.69200638 125.82397461 30.68432617 C123.17419822 30.69423443 120.5244912 30.70588987 117.8747406 30.72006226 C111.60168982 30.7503163 105.32876547 30.76201467 99.05564779 30.76563871 C87.85966927 30.7722718 76.66378179 30.80167553 65.46791023 30.85073507 C60.91984499 30.86969174 56.37196491 30.87127685 51.8238678 30.86880493 C29.00669809 30.31140826 29.00669809 30.31140826 8.07006836 38.14526367 C7.45905273 38.53069336 6.84803711 38.91612305 6.21850586 39.31323242 C-5.79832532 48.2298309 -12.04888359 65.93761176 -17.92993164 79.14526367 C-18.20979919 79.77287598 -18.48966675 80.40048828 -18.77801514 81.04711914 C-20.6654903 85.28798884 -22.5288139 89.53870284 -24.37051392 93.7996521 C-24.9822664 95.21254279 -25.5975124 96.62392722 -26.21664429 98.03359985 C-34.42179324 116.4536117 -34.42179324 116.4536117 -34.92993164 136.14526367 C-32.4311296 140.8305175 -29.41804537 142.00542469 -24.60217285 143.52677536 C-19.64757356 144.67351381 -14.69676484 144.57540493 -9.63305664 144.56176758 C-7.83396095 144.57464561 -7.83396095 144.57464561 -5.9985199 144.58778381 C-2.73661813 144.60845774 0.52500429 144.61624576 3.7869606 144.61844301 C7.20715874 144.62413434 10.62723527 144.64742369 14.04736328 144.66903687 C20.51281133 144.70743287 26.97822418 144.73173589 33.44375706 144.75016153 C45.04623479 144.78368897 56.64860791 144.8412321 68.2509594 144.90415323 C71.65407968 144.92213749 75.05717004 144.93716264 78.46032715 144.94603348 C82.24302741 144.95594992 86.025672 144.97133568 89.80834961 144.98754883 C91.50695885 144.98911232 91.50695885 144.98911232 93.23988342 144.9907074 C94.77484718 144.99888741 94.77484718 144.99888741 96.34082031 145.00723267 C97.23525345 145.00978876 98.12968658 145.01234486 99.05122375 145.01497841 C101.07006836 145.14526367 101.07006836 145.14526367 102.07006836 146.14526367 C102.73293764 151.86922945 100.74313342 156.11441585 98.44506836 161.20776367 C98.1137793 161.99731445 97.78249023 162.78686523 97.44116211 163.6003418 C97.09956055 164.36926758 96.75795898 165.13819336 96.40600586 165.93041992 C96.10227051 166.62014893 95.79853516 167.30987793 95.4855957 168.02050781 C93.48630262 171.02151639 91.12883127 173.27002084 88.07006836 175.14526367 C85.27645184 175.62739042 83.09943049 175.82025702 80.31900024 175.77345276 C79.5574549 175.78054715 78.79590956 175.78764153 78.01128709 175.7949509 C75.46867553 175.81250133 72.9275988 175.79444168 70.38500977 175.77636719 C68.55788478 175.78150759 66.73076475 175.78878978 64.90365601 175.79804993 C59.94423087 175.81656981 54.98534322 175.80361628 50.02594042 175.78395963 C44.8230634 175.76755191 39.62021989 175.77639014 34.41732788 175.78147888 C25.66948903 175.78600148 16.92186384 175.77012957 8.17407227 175.7421875 C-1.90624339 175.71023505 -11.98617157 175.71011193 -22.06651437 175.72740227 C-31.78949498 175.7433389 -41.51233503 175.73648163 -51.2353096 175.71946526 C-55.35851459 175.71263367 -59.48160558 175.71358725 -63.60480881 175.72101021 C-68.47887407 175.72874379 -73.35250596 175.71631913 -78.22649765 175.6891613 C-80.0032574 175.68234601 -81.78005817 175.68210457 -83.5568161 175.68937683 C-98.70591562 175.74417558 -113.32500539 174.44666836 -125.92993164 165.14526367 C-126.56157227 164.70569336 -127.19321289 164.26612305 -127.84399414 163.81323242 C-138.01493381 156.03940849 -142.91651698 143.27851356 -145.24243164 131.08276367 C-148.61948068 105.40502144 -139.60813727 80.08383378 -124.88696289 59.25463867 C-122.96720363 56.81757901 -120.9816968 54.47192553 -118.92993164 52.14526367 C-118.25575195 51.35120117 -117.58157227 50.55713867 -116.88696289 49.73901367 C-96.1514094 25.86857687 -69.53128079 10.03498839 -38.74243164 2.89526367 C-38.04239014 2.73171387 -37.34234863 2.56816406 -36.62109375 2.3996582 C-24.57331919 -0.21378427 -12.26245011 -0.00415203 0 0 Z " fill="#F6ECFE" transform="translate(1521.929931640625,20.854736328125)"/>
<path d="M0 0 C2.15046557 0.00374017 4.30093286 0.00658238 6.45140076 0.00857544 C12.05228562 0.01613295 17.65306316 0.03571165 23.25390625 0.0579834 C28.99282379 0.07861376 34.73175903 0.08761354 40.47070312 0.09765625 C51.68755421 0.11896668 62.90429818 0.15408244 74.12109375 0.1953125 C74.12109375 10.0953125 74.12109375 19.9953125 74.12109375 30.1953125 C70.96289062 30.24429688 67.8046875 30.29328125 64.55078125 30.34375 C61.44608365 30.39796828 58.34145473 30.45519328 55.23681641 30.51269531 C53.10145316 30.55066019 50.966033 30.5855656 48.83056641 30.6171875 C20.89402393 30.21730767 20.89402393 30.21730767 -2.56640625 43.5703125 C-12.04201233 55.28383011 -18.03821842 69.42379932 -23.97363281 83.15039062 C-25.13254338 85.82871817 -26.30548346 88.50056597 -27.48046875 91.171875 C-38.66216588 113.59840311 -38.66216588 113.59840311 -38.75390625 137.5703125 C-36.09042252 141.29918973 -33.15405577 142.58305323 -28.7928009 143.75669861 C-24.57280828 144.39191285 -20.39383739 144.37388603 -16.1315918 144.40063477 C-14.66746101 144.41548416 -14.66746101 144.41548416 -13.17375183 144.43063354 C-9.95440071 144.46216637 -6.73503485 144.48697351 -3.515625 144.51171875 C-1.28074261 144.53229537 0.95413596 144.55329203 3.18901062 144.57469177 C9.06618138 144.6298393 14.94338684 144.67928086 20.82061768 144.72753906 C26.81989626 144.77780753 32.81912456 144.83346569 38.81835938 144.88867188 C50.58589611 144.99616394 62.35347565 145.09713063 74.12109375 145.1953125 C74.12109375 155.0953125 74.12109375 164.9953125 74.12109375 175.1953125 C51.13731466 175.26487412 28.15356108 175.31835503 5.16969776 175.35074902 C-5.50303426 175.36619247 -16.17569951 175.38723363 -26.84838867 175.42163086 C-36.15488952 175.45161058 -45.461342 175.47090582 -54.7678898 175.47757798 C-59.69183457 175.48147575 -64.61564098 175.49058313 -69.53954124 175.51250267 C-74.18276171 175.53300347 -78.82578802 175.53911907 -83.46904945 175.53463554 C-85.16484765 175.5354547 -86.86065296 175.54133884 -88.55641174 175.55292892 C-106.70860154 175.67081335 -123.0022549 172.79175013 -136.62109375 159.7421875 C-148.10910645 146.78339117 -150.74418919 130.40462211 -150.04931641 113.63525391 C-147.78333864 81.19086735 -128.37388915 54.36808311 -104.87890625 33.1953125 C-74.28114937 7.45953685 -39.00439817 -0.20203041 0 0 Z " fill="#F6ECFE" transform="translate(1808.87890625,20.8046875)"/>
<path d="M0 0 C1.06439301 -0.0049649 2.12878601 -0.00992981 3.22543335 -0.01504517 C6.73338477 -0.02960393 10.24129096 -0.03645853 13.74926758 -0.04199219 C16.1991628 -0.04774907 18.64905803 -0.05350673 21.09895325 -0.05926514 C26.23247486 -0.06975744 31.3659809 -0.0756116 36.49951172 -0.07910156 C43.05496526 -0.08458067 49.61021054 -0.10860404 56.16559887 -0.13707352 C61.2264515 -0.15576179 66.28725459 -0.16090881 71.34813881 -0.16243744 C73.76368663 -0.16545081 76.17923385 -0.17343451 78.59474754 -0.18662262 C81.98519805 -0.20381161 85.37514776 -0.2017714 88.765625 -0.1953125 C89.74941635 -0.20452728 90.7332077 -0.21374207 91.74681091 -0.22323608 C103.7180033 -0.15233766 113.70975512 2.59266678 122.83129883 10.41113281 C132.5375163 21.64991094 135.39398394 33.41125343 134.42211914 48.12207031 C131.97856849 71.20864836 117.30067159 92.45405898 99.83520508 107.05175781 C96.71385617 109.55717152 93.49487173 111.87987053 90.20629883 114.16113281 C88.99780273 115.00224609 88.99780273 115.00224609 87.76489258 115.86035156 C71.46461133 126.3686547 52.56234637 131.2865261 33.33666992 131.33813477 C31.7278595 131.34799156 31.7278595 131.34799156 30.08654785 131.35804749 C26.55094318 131.37769377 23.01538083 131.38942402 19.47973633 131.39941406 C18.26673481 131.40348959 17.05373329 131.40756512 15.80397415 131.41176414 C9.38290835 131.43258835 2.96186369 131.44690562 -3.45922852 131.45629883 C-10.06621077 131.46735306 -16.67285532 131.5017527 -23.2797184 131.54147053 C-28.38264563 131.5677039 -33.48549318 131.57599667 -38.5884819 131.57958031 C-41.02275243 131.58442914 -43.4570198 131.59599402 -45.89122391 131.6146183 C-77.39059734 131.8406378 -77.39059734 131.8406378 -90.35620117 120.03613281 C-98.88157697 111.22783525 -101.22811767 99.81100821 -101.1550293 87.94067383 C-100.68766196 69.1633852 -92.33732133 52.63916062 -80.79370117 38.16113281 C-80.13112305 37.30519531 -79.46854492 36.44925781 -78.78588867 35.56738281 C-75.81528561 31.97936029 -72.35719023 29.14308025 -68.79370117 26.16113281 C-68.05120117 25.51917969 -67.30870117 24.87722656 -66.54370117 24.21582031 C-47.77256251 8.47029282 -24.41376904 0.0274583 0 0 Z M-3.74291992 34.17285156 C-15.10428182 50.7279789 -29.94731333 77.02125927 -30.35620117 97.41113281 C-30.39874023 98.38566406 -30.4412793 99.36019531 -30.48510742 100.36425781 C-29.67164558 103.65487182 -28.28204293 105.02111556 -25.65544128 107.09970093 C-22.22600693 109.05492064 -18.74461144 108.89382801 -14.87963867 108.86035156 C-13.60330063 108.87108452 -13.60330063 108.87108452 -12.30117798 108.8820343 C-10.50426271 108.88979442 -8.7072528 108.88483489 -6.91040039 108.86791992 C-4.19645157 108.84882803 -1.48772701 108.88795872 1.22583008 108.93261719 C12.49202485 108.98767091 21.50357402 107.90621937 30.40893555 100.27319336 C40.27056501 90.09993359 45.92620943 75.91736613 51.53588867 63.10864258 C52.59249772 60.69808354 53.6622204 58.29365499 54.73364258 55.88964844 C55.4206088 54.33595146 56.10683428 52.7819267 56.79223633 51.22753906 C57.10679779 50.52013077 57.42135925 49.81272247 57.74545288 49.08387756 C60.39651398 43.0044137 62.93913868 36.90325945 62.20629883 30.16113281 C60.47701555 26.35670959 59.03823907 24.72271857 55.20629883 23.16113281 C53.1412844 22.84340798 53.1412844 22.84340798 50.96362305 22.85473633 C50.13530975 22.83874893 49.30699646 22.82276154 48.45358276 22.80628967 C47.56502594 22.80092697 46.67646912 22.79556427 45.76098633 22.79003906 C44.83593292 22.78101059 43.91087952 22.77198212 42.95779419 22.76268005 C40.99932079 22.74818086 39.04079898 22.73929164 37.08227539 22.7355957 C34.11234671 22.72375658 31.14453564 22.67461725 28.17504883 22.62402344 C15.01018312 22.51033913 5.08110631 23.36828237 -3.74291992 34.17285156 Z " fill="#F6ECFE" transform="translate(618.793701171875,278.8388671875)"/>
<path d="M0 0 C1.09005592 -0.00642769 1.09005592 -0.00642769 2.20213318 -0.01298523 C3.74289918 -0.01872801 5.28369229 -0.01922916 6.82446289 -0.01489258 C9.15104338 -0.01176254 11.47631391 -0.03508504 13.80273438 -0.06054688 C27.04310273 -0.12359286 36.33193563 2.87967902 48.16326904 8.76449585 C51.37046499 10.35912235 54.5903014 11.92792306 57.80859375 13.5 C58.46644867 13.82210953 59.12430359 14.14421906 59.80209351 14.47608948 C66.15476385 17.57925232 72.57023142 20.54004442 78.99609375 23.48828125 C90.59589921 28.82896397 102.08558353 34.3811146 113.55859375 39.98828125 C114.39826691 40.39852539 115.23794006 40.80876953 116.10305786 41.23144531 C119.37935247 42.83226221 122.65553267 44.43331301 125.93156433 46.03466797 C132.42241635 49.20644698 138.91931216 52.36481924 145.43359375 55.48828125 C146.68547485 56.09385864 146.68547485 56.09385864 147.96264648 56.71166992 C151.62769992 58.62159669 151.62769992 58.62159669 155.62109375 59.30078125 C156.15476562 58.11226563 156.6884375 56.92375 157.23828125 55.69921875 C159.25524766 51.20973841 161.27667052 46.72227562 163.29931641 42.23535156 C164.16735937 40.30814868 165.03425799 38.38042989 165.89990234 36.45214844 C170.18607248 26.90635585 174.49343751 17.37449428 179.12109375 7.98828125 C179.44730713 7.31829102 179.77352051 6.64830078 180.10961914 5.95800781 C182.38130753 1.42067436 182.38130753 1.42067436 184.62109375 0.30078125 C186.94525671 0.21491316 189.27192682 0.19367082 191.59765625 0.203125 C192.28290375 0.20453995 192.96815125 0.2059549 193.67416382 0.20741272 C195.86485136 0.2130145 198.05543705 0.22556719 200.24609375 0.23828125 C201.73046727 0.24329603 203.2148424 0.24785897 204.69921875 0.25195312 C208.3398769 0.26298448 211.98047539 0.28025026 215.62109375 0.30078125 C217.19181584 4.66765715 216.12015068 7.21899646 214.29705811 11.22415161 C213.75169403 12.36809891 213.75169403 12.36809891 213.1953125 13.53515625 C212.82134338 14.34830292 212.44737427 15.16144958 212.06207275 15.99923706 C211.24954129 17.76239585 210.4309016 19.52274963 209.60690308 21.28057861 C207.83841862 25.05399393 206.09945133 28.84075314 204.35914612 32.62722778 C203.45483714 34.59457729 202.54908665 36.56126479 201.64195251 38.52731323 C197.53524546 47.44010425 193.57564715 56.4132881 189.6557312 65.40948486 C187.82401651 69.61054195 185.9821163 73.80712754 184.140625 78.00390625 C183.77530167 78.83648956 183.40997833 79.66907288 183.03358459 80.52688599 C182.28394032 82.23502515 181.53415724 83.94310339 180.78424072 85.65112305 C179.98888043 87.46296022 179.19393727 89.27498056 178.39935303 91.0871582 C175.92575337 96.72625491 173.44020089 102.35981908 170.93850708 107.98651123 C170.14990485 109.76505922 169.36522912 111.54535392 168.58468628 113.32745361 C167.50562146 115.78945799 166.4128195 118.24490129 165.31640625 120.69921875 C165.00052048 121.42840515 164.6846347 122.15759155 164.35917664 122.90887451 C162.67341676 126.63972766 161.35623598 129.425376 157.62109375 131.30078125 C153.81252216 131.92461201 149.97529115 131.76413257 146.12109375 131.73828125 C145.095 131.75826172 144.06890625 131.77824219 143.01171875 131.79882812 C130.31396431 131.79085215 119.76108493 126.6621254 108.5317688 121.27697754 C106.43026907 120.2692154 104.32495949 119.26982365 102.21850586 118.27246094 C100.05665647 117.24880484 97.89501463 116.22474201 95.73454285 115.19818115 C89.5717129 112.2701444 83.38341731 109.39964917 77.18359375 106.55078125 C65.82050662 101.31995232 54.46978283 96.06275917 43.12109375 90.80078125 C27.62845756 83.6180955 12.13016964 76.44791129 -3.37890625 69.30078125 C-5.45639278 71.92478813 -7.01974742 74.41310376 -8.35253906 77.47998047 C-8.71011292 78.295383 -9.06768677 79.11078552 -9.43609619 79.95089722 C-9.81425476 80.82690582 -10.19241333 81.70291443 -10.58203125 82.60546875 C-10.98290955 83.52103546 -11.38378784 84.43660217 -11.79681396 85.37991333 C-13.07912394 88.30973869 -14.35461786 91.24245905 -15.62890625 94.17578125 C-31.05777565 129.64021595 -31.05777565 129.64021595 -34.37890625 131.30078125 C-36.70306921 131.38664934 -39.02973932 131.40789168 -41.35546875 131.3984375 C-42.04071625 131.39702255 -42.72596375 131.3956076 -43.43197632 131.39414978 C-45.62266386 131.388548 -47.81324955 131.37599531 -50.00390625 131.36328125 C-51.48827977 131.35826647 -52.9726549 131.35370353 -54.45703125 131.34960938 C-58.0976894 131.33857802 -61.73828789 131.32131224 -65.37890625 131.30078125 C-66.83793813 127.48441822 -65.88427335 125.40283036 -64.265625 121.75390625 C-63.76909424 120.62041748 -63.27256348 119.48692871 -62.76098633 118.3190918 C-62.196385 117.06287198 -61.6315155 115.80677266 -61.06640625 114.55078125 C-60.4778764 113.22019831 -59.89025391 111.88921373 -59.3034668 110.55786133 C-57.34644247 106.13079307 -55.36413328 101.71525937 -53.37890625 97.30078125 C-52.68000662 95.74463178 -51.98111345 94.18847941 -51.28222656 92.63232422 C-48.33174578 86.06693658 -45.37703893 79.50347998 -42.41162109 72.94482422 C-38.38242966 64.0262038 -34.39305681 55.09203699 -30.47265625 46.125 C-30.07008102 45.20452377 -29.6675058 44.28404755 -29.25273132 43.3356781 C-27.32248428 38.91863397 -25.39769354 34.49929796 -23.47973633 30.0769043 C-20.2897017 22.74227224 -17.05767772 15.43387574 -13.546875 8.24609375 C-13.00699951 7.14023926 -12.46712402 6.03438477 -11.91088867 4.89501953 C-8.91392157 -0.18000396 -5.34101674 -0.00698545 0 0 Z " fill="#F6ECFE" transform="translate(800.37890625,278.69921875)"/>
<path d="M0 0 C1.85713371 -0.002062 1.85713371 -0.002062 3.75178528 -0.00416565 C5.10536219 -0.00062749 6.45893884 0.00300731 7.81251526 0.00672913 C9.2519531 0.0070115 10.69139109 0.00685229 12.13082886 0.00628662 C16.02286493 0.0060006 19.91486995 0.01186577 23.80689883 0.01886058 C27.88014489 0.02512662 31.95339171 0.02570048 36.02664185 0.02688599 C43.73293005 0.02998973 51.439204 0.0381902 59.14548594 0.04823548 C67.9217792 0.05942635 76.69807316 0.06491455 85.47437179 0.06993091 C103.52142052 0.08037363 121.568456 0.09795451 139.61549377 0.12025452 C140.88146909 5.75172061 139.57309627 8.30113037 136.99049377 13.30775452 C136.47422424 14.39346741 136.47422424 14.39346741 135.94752502 15.50111389 C135.42352112 16.54042053 135.42352112 16.54042053 134.88893127 17.60072327 C134.57359436 18.2287384 134.25825745 18.85675354 133.93336487 19.50379944 C132.03649456 21.83043491 130.51082847 22.23884328 127.61549377 23.12025452 C124.47982338 23.40771888 121.35749515 23.39032884 118.21046448 23.37562561 C116.7996888 23.38105629 116.7996888 23.38105629 115.3604126 23.38659668 C113.32138348 23.39348059 111.28233597 23.395998 109.24329567 23.39464951 C106.00974761 23.39368259 102.77653046 23.40664766 99.54302979 23.42362976 C90.35049521 23.46984288 81.15799404 23.49449293 71.96534729 23.50111389 C66.33788116 23.50614394 60.7107595 23.53047222 55.08341026 23.56644058 C52.94535076 23.57620622 50.80724366 23.5785883 48.66916847 23.57326889 C45.66823984 23.5661549 42.66832841 23.58357073 39.66749573 23.60609436 C38.79493134 23.59792191 37.92236694 23.58974945 37.02336121 23.58132935 C29.5270338 23.68074869 22.73254865 25.56993689 16.86549377 30.37025452 C11.35973535 37.09951482 7.05245421 43.65858863 3.36549377 51.55775452 C2.90094788 52.54042297 2.43640198 53.52309143 1.95777893 54.53553772 C-9.38080303 76.42676802 -9.38080303 76.42676802 -13.38450623 100.12025452 C-11.68131799 103.95242806 -10.22295242 105.55258821 -6.38450623 107.12025452 C-4.36871937 107.40521115 -4.36871937 107.40521115 -2.25852966 107.3473053 C-1.45800171 107.34715424 -0.65747375 107.34700317 0.16731262 107.34684753 C1.44877167 107.33136368 1.44877167 107.33136368 2.75611877 107.31556702 C3.63830078 107.31273712 4.52048279 107.30990723 5.42939758 107.30699158 C8.24156876 107.29581413 11.05341917 107.27071402 13.86549377 107.24525452 C15.77434334 107.23522157 17.6831979 107.22609627 19.59205627 107.21791077 C24.26665866 107.19588276 28.94102187 107.16136963 33.61549377 107.12025452 C36.17570917 101.46876455 38.73507164 95.81688932 41.29371643 90.16468811 C42.16035625 88.25052501 43.02721066 86.33645905 43.89430237 84.42250061 C44.73662515 82.56314382 45.57850393 80.70358583 46.41993713 78.84382629 C47.25879082 76.99132383 48.09944981 75.1396378 48.94190979 73.28877258 C50.96882322 68.82369223 52.95486255 64.3491165 54.84986877 59.8263092 C55.37761902 58.58408096 55.37761902 58.58408096 55.91603088 57.3167572 C56.57067381 55.76948219 57.21299471 54.21691069 57.84034729 52.65837097 C59.74305743 48.19198243 61.24949558 46.19573683 65.61549377 44.12025452 C68.4052124 43.75276184 68.4052124 43.75276184 71.4756012 43.7638092 C72.62997177 43.76080811 73.78434235 43.75780701 74.97369385 43.75471497 C76.21029251 43.76706177 77.44689117 43.77940857 78.72096252 43.79212952 C79.99651505 43.79400269 81.27206757 43.79587585 82.58627319 43.79780579 C85.27885505 43.80452254 87.97067615 43.81677556 90.6631012 43.83900452 C94.11661397 43.86737138 97.56989079 43.878226 101.02350903 43.88268661 C104.31852281 43.88783583 107.61347966 43.90237199 110.90846252 43.91712952 C112.77246956 43.92350433 112.77246956 43.92350433 114.6741333 43.93000793 C115.81904739 43.93961548 116.96396149 43.94922302 118.14356995 43.9591217 C119.15441147 43.96594971 120.16525299 43.97277771 121.20672607 43.97981262 C123.61549377 44.12025452 123.61549377 44.12025452 125.61549377 45.12025452 C125.09149246 51.23463064 123.13660271 56.07415217 120.59986877 61.62806702 C120.19218262 62.5395047 119.78449646 63.45094238 119.36445618 64.38999939 C118.0399861 67.34566387 116.70309531 70.29551249 115.36549377 73.24525452 C114.45135093 75.27617547 113.53794286 77.30742731 112.6252594 79.33900452 C110.80756165 83.3827761 108.98535787 87.42447439 107.16041565 91.46498108 C104.92611597 96.41927056 102.72360387 101.38679161 100.53736877 106.36244202 C99.66578203 108.33852895 98.79362954 110.31436511 97.92127991 112.29011536 C97.13516502 114.07557627 96.35522888 115.86375357 95.57545471 117.6519928 C95.1039801 118.71401917 94.63250549 119.77604553 94.14674377 120.87025452 C93.75035706 121.77259827 93.35397034 122.67494202 92.9455719 123.60462952 C91.40215813 126.52374396 89.91607532 128.73575491 87.61549377 131.12025452 C84.81421661 131.7438736 84.81421661 131.7438736 81.52064514 131.74171448 C80.2703653 131.75292328 79.02008545 131.76413208 77.73191833 131.77568054 C76.34870449 131.76276918 74.96549526 131.74935505 73.58229065 131.73548889 C72.12335057 131.73899059 70.66441431 131.74464972 69.20549011 131.75230408 C65.24198472 131.76656522 61.27917216 131.74947186 57.31573296 131.72601891 C53.16000005 131.70589849 49.00429564 131.71179061 44.848526 131.71412659 C37.86090196 131.71407298 30.87354796 131.69430667 23.88600159 131.6622467 C15.83129487 131.62546768 7.7769434 131.61655499 -0.27783632 131.62354422 C-8.0434167 131.62987603 -15.80887639 131.61903819 -23.57443237 131.59957886 C-26.8691786 131.59144782 -30.16386276 131.58868741 -33.45861816 131.590271 C-37.35260876 131.59115755 -41.24626801 131.57672929 -45.14017105 131.55104446 C-46.56061825 131.54394994 -47.98110088 131.54176616 -49.40156174 131.5451622 C-63.23567276 131.57190037 -74.99345065 130.0118425 -85.35325623 120.26869202 C-93.69088734 111.40112673 -96.98072297 99.82737585 -96.63450623 87.75306702 C-94.19064236 62.01612572 -81.20944018 40.58028312 -61.80638123 23.81947327 C-44.66896181 9.83005652 -22.31359812 -0.01921929 0 0 Z " fill="#F6ECFE" transform="translate(1094.384506225586,278.87974548339844)"/>
<path d="M0 0 C0.68348007 -0.00058411 1.36696014 -0.00116821 2.07115173 -0.00177002 C4.31708614 0.00100371 6.56167223 0.03205874 8.80737305 0.06347656 C10.36963679 0.07094156 11.93190993 0.07663327 13.4941864 0.08062744 C17.59614134 0.0958636 21.69752526 0.13512731 25.79925537 0.17944336 C29.98873165 0.22044005 34.17830065 0.2386478 38.36791992 0.25878906 C46.58110116 0.3016243 54.79370955 0.37195694 63.0065918 0.45410156 C63.0065918 10.35410156 63.0065918 20.25410156 63.0065918 30.45410156 C52.34966443 30.49922568 41.69280017 30.53594449 31.03579903 30.55772591 C26.08771347 30.5681781 21.13969648 30.58236339 16.19165039 30.60498047 C11.41951699 30.62665779 6.64744967 30.63865936 1.87527084 30.64385605 C0.0515425 30.64756102 -1.77218209 30.65479556 -3.59588242 30.66556168 C-6.14367332 30.68000877 -8.69118862 30.68208237 -11.23901367 30.68115234 C-11.99858368 30.6883429 -12.75815369 30.69553345 -13.54074097 30.70294189 C-18.76530388 30.68220589 -18.76530388 30.68220589 -20.9934082 28.45410156 C-20.69304638 22.99752849 -18.42890824 18.25451156 -16.2434082 13.32910156 C-15.90825195 12.53117187 -15.5730957 11.73324219 -15.2277832 10.91113281 C-14.8874707 10.13898438 -14.5471582 9.36683594 -14.1965332 8.57128906 C-13.89392578 7.87632324 -13.59131836 7.18135742 -13.27954102 6.46533203 C-9.84452754 1.09372212 -6.16867246 -0.0444589 0 0 Z " fill="#F6ECFE" transform="translate(1819.993408203125,85.5458984375)"/>
</svg>
